<?xml version="1.0" encoding="utf-8"?>
<!-- Generator: Adobe Illustrator 18.1.1, SVG Export Plug-In . SVG Version: 6.00 Build 0)  -->
<!DOCTYPE svg PUBLIC "-//W3C//DTD SVG 1.1//EN" "http://www.w3.org/Graphics/SVG/1.1/DTD/svg11.dtd">
<svg version="1.1" id="Layer_1" xmlns="http://www.w3.org/2000/svg" xmlns:xlink="http://www.w3.org/1999/xlink" x="0px" y="0px"
	 viewBox="0 0 24 24" enable-background="new 0 0 24 24" xml:space="preserve">
<g>
	<path d="M0,1.5v21h24v-21H0z M22.5,21h-21V3h21V21z"/>
	<path d="M3,4.5v15h18v-15H3z M9.7,9.6L6.2,12c-0.1,0.1-0.3,0.1-0.4,0.1c-0.2,0-0.5-0.1-0.6-0.3C5,11.4,5,11,5.4,10.7L7.9,9L5.4,7.5
		C5.1,7.3,5,6.8,5.2,6.5c0.2-0.4,0.7-0.5,1-0.2l3.4,2.1C9.9,8.5,10,8.7,10,9C10,9.2,9.9,9.5,9.7,9.6z M16.5,10.5H12V9h4.5V10.5z"/>
</g>
</svg>
