<?xml version="1.0" encoding="utf-8"?>
<!-- Generator: Adobe Illustrator 18.1.1, SVG Export Plug-In . SVG Version: 6.00 Build 0)  -->
<!DOCTYPE svg PUBLIC "-//W3C//DTD SVG 1.1//EN" "http://www.w3.org/Graphics/SVG/1.1/DTD/svg11.dtd">
<svg version="1.1" id="Layer_1" xmlns="http://www.w3.org/2000/svg" xmlns:xlink="http://www.w3.org/1999/xlink" x="0px" y="0px"
	 viewBox="0 0 24 24" enable-background="new 0 0 24 24" xml:space="preserve">
<path fill="#404F21" d="M12.9,0L12.9,0c-0.3,0-0.6,0-0.9,0c-1.9,0-3.7,0.5-5.3,1.3C2.7,3.2,0,7.3,0,12c0,3,1.1,5.7,2.8,7.8
	c0.8,0.9,1.7,1.7,2.7,2.3C7.4,23.3,9.6,24,12,24c6.6,0,12-5.4,12-12C24,5.7,19.1,0.5,12.9,0z M18,13c0,0.3-0.2,0.5-0.5,0.5h-4v4
	c0,0.3-0.2,0.5-0.5,0.5h-2c-0.3,0-0.5-0.2-0.5-0.5v-4h-4C6.2,13.5,6,13.3,6,13v-2c0-0.3,0.2-0.5,0.5-0.5h4v-4C10.5,6.2,10.7,6,11,6
	h2c0.3,0,0.5,0.2,0.5,0.5v4h4c0.3,0,0.5,0.2,0.5,0.5V13z"/>
</svg>
